<svg width="138" height="46" viewBox="0 0 138 46" fill="none" xmlns="http://www.w3.org/2000/svg">
<path fill-rule="evenodd" clip-rule="evenodd" d="M24.0239 19.5253C24.0312 19.3031 24.1298 19.0919 24.2998 18.9348C24.4697 18.7776 24.6981 18.6864 24.9383 18.6797H26.5509C27.7866 18.6797 28.3262 18.1826 28.5939 17.7274C28.7566 17.4303 29.4013 15.9886 29.8296 15.0954H24.0219V4.76142C24.0163 4.64908 24.0361 4.53691 24.0801 4.43208C24.1241 4.32725 24.1913 4.23207 24.2774 4.15264C24.3635 4.07322 24.4666 4.0113 24.58 3.97084C24.6935 3.93038 24.8148 3.91229 24.9363 3.91771H28.0543C29.29 3.91771 29.8832 3.37111 30.0974 2.92355L31.3887 0.341015H21.3363C21.0399 0.337597 20.7531 0.437993 20.5334 0.622044C20.3138 0.806095 20.1776 1.06018 20.1521 1.33327V35.1233H28.7566C29.9923 35.1233 30.5834 34.6263 30.8532 34.1806C31.0138 33.8816 31.6605 32.4913 32.0889 31.5962H24.0239V19.5253ZM42.5799 1.39041V35.1233H45.2696C45.5684 35.1218 45.8545 35.0114 46.0658 34.816C46.2771 34.6206 46.3966 34.356 46.3982 34.0797V20.0205C46.3991 19.9055 46.4252 19.792 46.4749 19.6866C46.5246 19.5812 46.5969 19.4863 46.6873 19.4074C46.7778 19.3286 46.8846 19.2675 47.0012 19.2279C47.1179 19.1882 47.242 19.1708 47.3662 19.1768H49.9467C51.1824 19.1768 51.722 18.6302 51.9918 18.1826L53.281 15.6001H46.3982V4.76142C46.4055 4.53945 46.5042 4.32845 46.6742 4.1716C46.8442 4.01475 47.0726 3.92393 47.3126 3.91771H51.6149C52.8506 3.91771 53.3881 3.37111 53.6579 2.92355C53.8185 2.62644 54.5187 1.23424 54.8936 0.341015H43.7106C43.4103 0.342023 43.1227 0.453028 42.9108 0.649718C42.6989 0.846408 42.5799 1.11275 42.5799 1.39041ZM67.3741 0.348633H65.0633V34.3787C65.1169 34.6263 65.2693 35.1233 66.1919 35.1233H68.9352V1.73894C68.9395 1.55069 68.9016 1.36366 68.8239 1.18962C68.7463 1.01558 68.6304 0.858305 68.4838 0.727697C68.3371 0.597089 68.1628 0.495981 67.9718 0.430741C67.7808 0.365502 67.5773 0.337546 67.3741 0.348633ZM88.2964 0.000104837H85.93C85.2982 -0.00390887 84.6717 0.107363 84.0864 0.327551C83.5012 0.547738 82.9686 0.872516 82.5192 1.28329C82.0699 1.69407 81.7125 2.18277 81.4677 2.72143C81.2228 3.26008 81.0953 3.83811 81.0923 4.42241V31.0438C81.0955 31.6281 81.2233 32.206 81.4682 32.7445C81.7132 33.2831 82.0705 33.7717 82.5198 34.1824C82.9691 34.5931 83.5016 34.9179 84.0868 35.1382C84.6719 35.3585 85.2983 35.4699 85.93 35.4662H88.2964C89.5356 35.4243 90.7092 34.9405 91.5712 34.116C92.4331 33.2916 92.9165 32.1906 92.9199 31.0438V22.6639C91.954 23.062 90.4485 23.6581 90.1252 23.8067C89.6412 24.0542 89.0955 24.6008 89.0955 25.7436V30.4135C89.1042 30.67 89.0571 30.9256 88.957 31.165C88.8569 31.4044 88.7057 31.6228 88.5126 31.8071C88.3194 31.9915 88.0882 32.138 87.8326 32.2381C87.577 32.3382 87.3022 32.3898 87.0247 32.3898C86.7471 32.3898 86.4723 32.3382 86.2167 32.2381C85.9611 32.138 85.7299 31.9915 85.5367 31.8071C85.3436 31.6228 85.1924 31.4044 85.0923 31.165C84.9922 30.9256 84.9451 30.67 84.9538 30.4135V5.01853C84.9708 4.52109 85.1964 4.04928 85.5829 3.70295C85.9694 3.35663 86.4865 3.16297 87.0247 3.16297C87.5628 3.16297 88.0799 3.35663 88.4664 3.70295C88.8529 4.04928 89.0785 4.52109 89.0955 5.01853V12.8176L91.8984 11.6177C92.3824 11.4272 92.9282 10.873 92.9282 9.73032V4.42241C92.934 3.2718 92.4526 2.16478 91.5869 1.33827C90.7213 0.511767 89.5402 0.0314457 88.2964 0.000104837ZM108.741 0.348633H106.638L100.938 35.1233H105.186L108.574 11.1778L111.962 35.1233H116.209L110.778 2.23602C110.617 1.29137 110.349 0.348633 108.741 0.348633ZM127.507 31.5962C126.969 31.5962 126.646 31.2495 126.809 30.6439L137.93 0.33911H123.308C123.738 1.23233 124.385 2.62454 124.543 2.92165C124.813 3.36921 125.404 3.91581 126.64 3.91581H130.996C131.64 3.91581 131.857 4.31195 131.749 4.75951L120.686 35.1233H134.721C135.957 35.1233 136.495 34.6263 136.764 34.1311L138 31.5962H127.507Z" fill="white"/>
<path d="M13.5308 1.52373C13.0489 1.71418 12.4578 2.2684 12.4578 3.41302V35.1424H16.3255V0.320068L13.5308 1.52373Z" fill="white"/>
<path d="M7.32766 6.85644C6.84574 7.04689 6.25467 7.60111 6.25467 8.74573V35.1329H10.1224V5.6604L7.32766 6.85644Z" fill="white"/>
<path d="M1.07505 14.9698C0.591072 15.1698 0 15.7164 0 16.8591V35.1425H3.86771V13.7776L1.07505 14.9698Z" fill="white"/>
<path d="M83.3432 38.563H84.2556L85.6746 41.6597C85.8146 41.9759 85.9814 42.4216 85.9814 42.4216H85.9979C85.9979 42.4216 86.1647 41.9683 86.3048 41.6597L87.7258 38.563H88.6361L89.1366 44.2766H88.2778L87.9709 40.6713C87.9441 40.3228 87.9709 39.8276 87.9709 39.8276H87.94C87.94 39.8276 87.7567 40.3551 87.6064 40.6713L86.3707 43.2481H85.6004L84.3647 40.6713C84.2247 40.3628 84.0311 39.8124 84.0311 39.8124H84.027C84.027 39.8124 84.027 40.3228 84.0105 40.6713L83.7119 44.2766H82.8428L83.3432 38.563Z" fill="white"/>
<path d="M94.4728 41.7245H94.6663V41.6502C94.6663 40.9779 94.2544 40.7513 93.6943 40.7513C93.2488 40.7676 92.8186 40.9061 92.4586 41.1494L92.1064 40.578C92.5861 40.2588 93.163 40.0887 93.754 40.0923C94.8744 40.0923 95.5066 40.6637 95.5066 41.6979V44.2899H94.7364V43.909C94.7364 43.7186 94.7528 43.5852 94.7528 43.5852H94.7364C94.609 43.8324 94.4072 44.0404 94.1551 44.184C93.903 44.3276 93.6113 44.4007 93.3153 44.3947C92.5533 44.3947 91.8098 43.9661 91.8098 43.1472C91.8016 41.7798 93.7293 41.7245 94.4728 41.7245ZM93.5007 43.749C94.2194 43.749 94.6828 43.0539 94.6828 42.4444V42.3149H94.4645C93.824 42.3149 92.6686 42.3568 92.6686 43.0939C92.6604 43.4234 92.9405 43.749 93.5007 43.749Z" fill="white"/>
<path d="M98.4969 40.1858H99.3207V40.9C99.3207 41.0024 99.3145 41.1048 99.3022 41.2066H99.3207C99.5267 40.6067 100.039 40.1382 100.721 40.1382C100.795 40.1386 100.869 40.1437 100.942 40.1534V40.9324C100.861 40.9163 100.779 40.908 100.696 40.9076C100.153 40.9076 99.6523 41.2638 99.4505 41.8713C99.3761 42.1115 99.3407 42.3605 99.3454 42.6103V44.2862H98.4969V40.1858Z" fill="white"/>
<path d="M103.491 38.563H104.342V41.6921H104.96L106.168 40.1837H107.132L105.662 41.9911V42.0083L107.299 44.2937H106.309L104.978 42.3663H104.338V44.2937H103.487L103.491 38.563Z" fill="white"/>
<path d="M111.651 40.0867C112.903 40.0867 113.57 40.9456 113.57 42.0083C113.57 42.1131 113.544 42.3473 113.544 42.3473H110.31C110.307 42.5308 110.344 42.7129 110.42 42.8823C110.497 43.0517 110.61 43.2047 110.753 43.3318C110.896 43.4589 111.066 43.5574 111.252 43.621C111.438 43.6846 111.636 43.712 111.834 43.7015C112.319 43.686 112.784 43.5173 113.15 43.2234L113.5 43.7948C113.021 44.1721 112.412 44.3788 111.783 44.3776C111.473 44.3883 111.165 44.3404 110.877 44.2367C110.588 44.1329 110.326 43.9757 110.106 43.7746C109.885 43.5734 109.712 43.3327 109.596 43.0673C109.481 42.8018 109.425 42.5173 109.433 42.2312C109.433 40.9304 110.388 40.0867 111.651 40.0867ZM112.701 41.7569C112.676 41.0523 112.203 40.7114 111.632 40.7114C111.314 40.7038 111.004 40.8071 110.764 41.0008C110.524 41.1944 110.372 41.4643 110.337 41.7569H112.701Z" fill="white"/>
<path d="M116.497 40.8731H115.918V40.2408H116.524V39.0581H117.347V40.2408H118.42V40.8731H117.352V42.6957C117.352 43.5147 117.969 43.6194 118.299 43.6194C118.368 43.6205 118.437 43.6154 118.505 43.6042V44.3013C118.406 44.3119 118.307 44.317 118.208 44.3165C117.638 44.3165 116.507 44.1546 116.507 42.7929L116.497 40.8731Z" fill="white"/>
<path d="M121.151 38.563H122.01V39.3648H121.151V38.563ZM121.151 40.1837H122.002V44.2842H121.16L121.151 40.1837Z" fill="white"/>
<path d="M125.05 40.1857H125.874V40.7285C125.874 40.8904 125.857 41.0294 125.857 41.0294H125.874C126.025 40.7413 126.262 40.4994 126.557 40.3326C126.853 40.1658 127.194 40.0811 127.54 40.0886C128.582 40.0886 129.064 40.6161 129.064 41.6617V44.2862H128.213V41.8369C128.213 41.2656 128.084 40.8085 127.373 40.8085C127.052 40.8074 126.739 40.9055 126.485 41.0873C126.231 41.2692 126.05 41.5243 125.971 41.8122C125.919 41.9924 125.896 42.1783 125.901 42.3645V44.2843H125.05V40.1857Z" fill="white"/>
<path d="M133.661 45.3071C134.431 45.3071 135.063 44.9909 135.063 44.1644V43.8653C135.063 43.7358 135.063 43.6063 135.063 43.6063H135.047C134.913 43.8156 134.719 43.9863 134.487 44.0993C134.255 44.2124 133.993 44.2632 133.731 44.2462C132.495 44.2462 131.751 43.3302 131.751 42.1513C131.751 40.9724 132.46 40.1001 133.687 40.1001C134.756 40.1001 135.082 40.7076 135.082 40.7076H135.102C135.099 40.6645 135.099 40.6213 135.102 40.5781V40.1972H135.926V44.1282C135.926 45.4823 134.812 46.0003 133.689 46.0003C133.163 45.9953 132.644 45.8787 132.174 45.6594L132.456 45.0442C132.832 45.2124 133.243 45.3021 133.661 45.3071ZM135.08 42.1456C135.08 41.0752 134.519 40.7686 133.827 40.7686C133.055 40.7686 132.618 41.2866 132.618 42.1208C132.618 42.955 133.109 43.5549 133.906 43.5549C134.515 43.5549 135.075 43.2159 135.075 42.1456H135.08Z" fill="white"/>
</svg>
